<?xml version="1.0" encoding="UTF-8"?>
<!DOCTYPE svg PUBLIC "-//W3C//DTD SVG 1.1//EN" "http://www.w3.org/Graphics/SVG/1.1/DTD/svg11.dtd">
<svg xmlns="http://www.w3.org/2000/svg" version="1.1" width="512px" height="512px" style="shape-rendering:geometricPrecision; text-rendering:geometricPrecision; image-rendering:optimizeQuality; fill-rule:evenodd; clip-rule:evenodd" xmlns:xlink="http://www.w3.org/1999/xlink">
<g><path style="opacity:0.985" fill="#030301" d="M 511.5,239.5 C 511.5,244.167 511.5,248.833 511.5,253.5C 507.952,261.87 501.619,266.704 492.5,268C 477.5,268.667 462.5,268.667 447.5,268C 442.893,267.412 438.893,265.579 435.5,262.5C 428.884,280.9 429.217,299.234 436.5,317.5C 454.796,321.125 462.463,332.125 459.5,350.5C 480.932,351.437 489.432,362.437 485,383.5C 480.328,392.502 472.995,397.835 463,399.5C 455.667,418.833 455.667,438.167 463,457.5C 471.835,459.322 478.835,463.988 484,471.5C 490.249,487.769 485.416,499.269 469.5,506C 334.5,506.667 199.5,506.667 64.5,506C 28.9867,498.32 7.32001,476.82 -0.5,441.5C -0.5,433.167 -0.5,424.833 -0.5,416.5C 6.73549,383.759 26.4022,362.259 58.5,352C 27.7412,327.374 18.5745,296.207 31,258.5C 43.5316,230.481 65.0316,214.481 95.5,210.5C 95.8331,185.824 95.4998,161.158 94.5,136.5C 68.1291,127.432 41.7958,118.265 15.5,109C 7.17125,102.788 5.33792,94.9544 10,85.5C 12.2643,82.5665 15.0976,80.3999 18.5,79C 60.1667,64.6667 101.833,50.3333 143.5,36C 147.41,34.9586 150.41,36.1252 152.5,39.5C 154.288,44.7633 152.621,48.5967 147.5,51C 105.945,65.0175 64.6117,79.5175 23.5,94.5C 43.7202,102.798 64.3869,110.131 85.5,116.5C 88.6538,118.002 91.9872,119.336 95.5,120.5C 95.9877,108.178 102.321,101.012 114.5,99C 195.384,85.7314 276.384,85.0647 357.5,97C 364.523,98.226 371.523,99.5593 378.5,101C 386.162,105.142 390.162,111.642 390.5,120.5C 395.6,118.473 400.6,116.473 405.5,114.5C 424.799,108.623 443.799,101.956 462.5,94.5C 391.019,69.1729 319.353,44.3396 247.5,20C 243.833,19.3333 240.167,19.3333 236.5,20C 217.394,26.7019 198.228,33.2019 179,39.5C 175.122,39.1136 172.622,37.1136 171.5,33.5C 170.856,28.6149 172.856,25.4482 177.5,24C 194.833,18 212.167,12 229.5,6C 237.102,4.47723 244.768,4.1439 252.5,5C 325.606,30.0543 398.606,55.3877 471.5,81C 475.325,83.4881 477.492,86.9881 478,91.5C 478.333,110.167 478.667,128.833 479,147.5C 495.89,154.607 502.89,167.274 500,185.5C 498.837,189.991 497.003,194.157 494.5,198C 499.805,212.093 505.472,225.926 511.5,239.5 Z M 461.5,111.5 C 462.66,123.326 462.826,135.326 462,147.5C 444.243,154.68 437.243,167.68 441,186.5C 442.44,190.547 444.274,194.38 446.5,198C 444.862,201.442 443.362,204.942 442,208.5C 424.91,209.492 407.744,209.825 390.5,209.5C 390.167,185.158 390.5,160.824 391.5,136.5C 415.083,128.53 438.417,120.197 461.5,111.5 Z"/></g>
<g><path style="opacity:1" fill="#858390" d="M 405.5,114.5 C 402.328,103.482 395.328,95.6488 384.5,91C 291.141,73.1148 197.807,73.1148 104.5,91C 92.6863,95.4763 86.353,103.976 85.5,116.5C 64.3869,110.131 43.7202,102.798 23.5,94.5C 64.6117,79.5175 105.945,65.0175 147.5,51C 152.621,48.5967 154.288,44.7633 152.5,39.5C 158.966,37.9001 165.299,35.9001 171.5,33.5C 172.622,37.1136 175.122,39.1136 179,39.5C 198.228,33.2019 217.394,26.7019 236.5,20C 240.167,19.3333 243.833,19.3333 247.5,20C 319.353,44.3396 391.019,69.1729 462.5,94.5C 443.799,101.956 424.799,108.623 405.5,114.5 Z"/></g>
<g><path style="opacity:1" fill="#75757d" d="M 405.5,114.5 C 400.6,116.473 395.6,118.473 390.5,120.5C 390.162,111.642 386.162,105.142 378.5,101C 371.523,99.5593 364.523,98.226 357.5,97C 276.384,85.0647 195.384,85.7314 114.5,99C 102.321,101.012 95.9877,108.178 95.5,120.5C 91.9872,119.336 88.6538,118.002 85.5,116.5C 86.353,103.976 92.6863,95.4763 104.5,91C 197.807,73.1148 291.141,73.1148 384.5,91C 395.328,95.6488 402.328,103.482 405.5,114.5 Z"/></g>
<g><path style="opacity:1" fill="#858390" d="M 321.5,178.5 C 314.5,178.5 307.5,178.5 300.5,178.5C 301.208,173.559 299.208,170.559 294.5,169.5C 236.669,168.501 178.669,168.168 120.5,168.5C 120.5,150.167 120.5,131.833 120.5,113.5C 182.451,103.117 244.784,100.617 307.5,106C 327.991,107.603 348.325,110.27 368.5,114C 370.676,114.163 372.509,114.996 374,116.5C 374.5,134.164 374.667,151.83 374.5,169.5C 358.163,169.333 341.83,169.5 325.5,170C 322.179,171.812 320.845,174.645 321.5,178.5 Z"/></g>
<g><path style="opacity:1" fill="#73737c" d="M 120.5,113.5 C 120.5,131.833 120.5,150.167 120.5,168.5C 178.669,168.168 236.669,168.501 294.5,169.5C 233.5,169.5 172.5,169.5 111.5,169.5C 111.333,151.497 111.5,133.497 112,115.5C 114.621,114.009 117.455,113.342 120.5,113.5 Z"/></g>
<g><path style="opacity:1" fill="#f9ca08" d="M 466.5,162.5 C 479.492,161.66 485.658,167.66 485,180.5C 481.892,190.644 475.059,194.477 464.5,192C 463.584,191.722 462.918,191.222 462.5,190.5C 460.624,184.994 460.124,179.328 461,173.5C 462.655,169.697 464.489,166.03 466.5,162.5 Z"/></g>
<g><path style="opacity:1" fill="#f2a617" d="M 466.5,162.5 C 464.489,166.03 462.655,169.697 461,173.5C 460.124,179.328 460.624,184.994 462.5,190.5C 455.943,185.798 453.776,179.464 456,171.5C 458.459,167.202 461.959,164.202 466.5,162.5 Z"/></g>
<g><path style="opacity:1" fill="#fccb08" d="M 300.5,178.5 C 307.5,178.5 314.5,178.5 321.5,178.5C 322.203,180.716 323.536,182.549 325.5,184C 341.83,184.5 358.163,184.667 374.5,184.5C 374.5,190.167 374.5,195.833 374.5,201.5C 291.166,201.667 207.833,201.5 124.5,201C 122.667,200.5 121.5,199.333 121,197.5C 120.501,193.179 120.334,188.846 120.5,184.5C 178.834,184.667 237.168,184.5 295.5,184C 298.079,182.924 299.746,181.091 300.5,178.5 Z"/></g>
<g><path style="opacity:1" fill="#faab17" d="M 111.5,184.5 C 114.5,184.5 117.5,184.5 120.5,184.5C 120.334,188.846 120.501,193.179 121,197.5C 121.5,199.333 122.667,200.5 124.5,201C 207.833,201.5 291.166,201.667 374.5,201.5C 374.5,204.167 374.5,206.833 374.5,209.5C 286.833,209.5 199.167,209.5 111.5,209.5C 111.5,201.167 111.5,192.833 111.5,184.5 Z"/></g>
<g><path style="opacity:1" fill="#f2a617" d="M 484.5,215.5 C 477.638,217.06 470.638,217.893 463.5,218C 456.499,228.506 452.165,240.006 450.5,252.5C 444.905,251.44 443.071,248.107 445,242.5C 449.736,230.793 454.569,219.126 459.5,207.5C 465.905,207.787 472.405,207.454 479,206.5C 479.833,206.833 480.667,207.167 481.5,207.5C 482.508,210.195 483.508,212.862 484.5,215.5 Z"/></g>
<g><path style="opacity:1" fill="#a36f0f" d="M 111.5,184.5 C 111.5,192.833 111.5,201.167 111.5,209.5C 199.167,209.5 286.833,209.5 374.5,209.5C 286.668,210.499 198.668,210.833 110.5,210.5C 110.174,201.651 110.507,192.984 111.5,184.5 Z"/></g>
<g><path style="opacity:1" fill="#fbcb08" d="M 484.5,215.5 C 488.424,224.764 492.257,234.097 496,243.5C 496.93,246.85 496.097,249.683 493.5,252C 479.171,252.5 464.837,252.667 450.5,252.5C 452.165,240.006 456.499,228.506 463.5,218C 470.638,217.893 477.638,217.06 484.5,215.5 Z"/></g>
<g><path style="opacity:1" fill="#3c4b16" d="M 98.5,225.5 C 211.001,224.168 323.667,224.168 436.5,225.5C 436.376,226.107 436.043,226.44 435.5,226.5C 323.335,225.5 211.001,225.167 98.5,225.5 Z"/></g>
<g><path style="opacity:1" fill="#b6e445" d="M 98.5,225.5 C 211.001,225.167 323.335,225.5 435.5,226.5C 433.368,231.265 431.368,236.099 429.5,241C 318.833,241.333 208.167,241.667 97.5,242C 77.7361,245.764 64.9028,257.264 59,276.5C 55.0019,307.018 67.8353,326.184 97.5,334C 120.833,334.667 144.167,334.667 167.5,334C 170.534,332.809 172.201,330.642 172.5,327.5C 179.5,327.5 186.5,327.5 193.5,327.5C 193.799,330.642 195.466,332.809 198.5,334C 279.167,334.333 359.833,334.667 440.5,335C 444.048,337.591 445.382,341.091 444.5,345.5C 329.833,345.667 215.166,345.5 100.5,345C 69.6474,338.312 49.9807,319.812 41.5,289.5C 41.7854,260.713 55.1187,240.547 81.5,229C 86.949,226.721 92.6157,225.554 98.5,225.5 Z"/></g>
<g><path style="opacity:1" fill="#7d7e7e" d="M 419.5,258.5 C 344.002,257.501 268.335,257.167 192.5,257.5C 192.5,260.5 192.5,263.5 192.5,266.5C 192.828,278.012 192.495,289.346 191.5,300.5C 191.5,285.833 191.5,271.167 191.5,256.5C 267.836,256.167 344.17,256.5 420.5,257.5C 420.376,258.107 420.043,258.44 419.5,258.5 Z"/></g>
<g><path style="opacity:1" fill="#dbdede" d="M 98.5,257.5 C 109.167,257.5 119.833,257.5 130.5,257.5C 130.5,260.5 130.5,263.5 130.5,266.5C 120.161,266.334 109.828,266.5 99.5,267C 86.9061,271.924 81.4061,281.091 83,294.5C 85.0948,302.927 90.2614,308.427 98.5,311C 151.667,311.167 204.833,311.333 258,311.5C 311.504,311.5 364.671,310.833 417.5,309.5C 418.371,312.003 419.037,314.67 419.5,317.5C 345.833,318.167 272.167,318.833 198.5,319.5C 194.398,320.609 192.731,323.275 193.5,327.5C 186.5,327.5 179.5,327.5 172.5,327.5C 173.275,323.818 171.941,321.318 168.5,320C 145.167,319.667 121.833,319.333 98.5,319C 79.7594,313.575 71.2594,301.075 73,281.5C 76.5172,268.148 85.0172,260.148 98.5,257.5 Z"/></g>
<g><path style="opacity:1" fill="#d63623" d="M 146.5,257.5 C 148.5,257.5 150.5,257.5 152.5,257.5C 152.5,266.5 152.5,275.5 152.5,284.5C 150.891,285.771 149.058,286.771 147,287.5C 146.5,277.506 146.334,267.506 146.5,257.5 Z"/></g>
<g><path style="opacity:1" fill="#ed5126" d="M 152.5,257.5 C 160.5,257.5 168.5,257.5 176.5,257.5C 176.827,267.348 176.494,277.014 175.5,286.5C 170.895,284.965 166.229,283.632 161.5,282.5C 158.418,282.879 155.418,283.546 152.5,284.5C 152.5,275.5 152.5,266.5 152.5,257.5 Z"/></g>
<g><path style="opacity:1" fill="#973318" d="M 146.5,257.5 C 156.653,256.506 166.986,256.172 177.5,256.5C 177.832,266.855 177.499,277.188 176.5,287.5C 175.893,287.376 175.56,287.043 175.5,286.5C 176.494,277.014 176.827,267.348 176.5,257.5C 168.5,257.5 160.5,257.5 152.5,257.5C 150.5,257.5 148.5,257.5 146.5,257.5 Z"/></g>
<g><path style="opacity:1" fill="#dde0e0" d="M 419.5,258.5 C 418.833,261.167 418.167,263.833 417.5,266.5C 342.5,266.5 267.5,266.5 192.5,266.5C 192.5,263.5 192.5,260.5 192.5,257.5C 268.335,257.167 344.002,257.501 419.5,258.5 Z"/></g>
<g><path style="opacity:1" fill="#f0f1f1" d="M 130.5,266.5 C 130.172,277.679 130.505,288.679 131.5,299.5C 132.002,303.671 134.336,305.671 138.5,305.5C 146.551,303.538 154.384,300.872 162,297.5C 169.202,301.067 176.702,303.734 184.5,305.5C 188.244,305.75 190.578,304.083 191.5,300.5C 192.495,289.346 192.828,278.012 192.5,266.5C 267.5,266.5 342.5,266.5 417.5,266.5C 414.982,280.802 414.982,295.135 417.5,309.5C 364.671,310.833 311.504,311.5 258,311.5C 204.833,311.333 151.667,311.167 98.5,311C 90.2614,308.427 85.0948,302.927 83,294.5C 81.4061,281.091 86.9061,271.924 99.5,267C 109.828,266.5 120.161,266.334 130.5,266.5 Z"/></g>
<g><path style="opacity:1" fill="#999b9b" d="M 98.5,257.5 C 109.321,256.505 120.321,256.172 131.5,256.5C 131.5,270.833 131.5,285.167 131.5,299.5C 130.505,288.679 130.172,277.679 130.5,266.5C 130.5,263.5 130.5,260.5 130.5,257.5C 119.833,257.5 109.167,257.5 98.5,257.5 Z"/></g>
<g><path style="opacity:1" fill="#aad440" d="M 41.5,289.5 C 49.9807,319.812 69.6474,338.312 100.5,345C 215.166,345.5 329.833,345.667 444.5,345.5C 443.375,347.129 442.041,348.629 440.5,350C 324.167,350.667 207.833,350.667 91.5,350C 60.7699,341.438 44.1032,321.271 41.5,289.5 Z"/></g>
<g><path style="opacity:1" fill="#848686" d="M 419.5,317.5 C 420.043,317.56 420.376,317.893 420.5,318.5C 346.503,319.5 272.503,319.833 198.5,319.5C 272.167,318.833 345.833,318.167 419.5,317.5 Z"/></g>
<g><path style="opacity:1" fill="#ea5026" d="M 380.5,468.5 C 387.5,468.5 394.5,468.5 401.5,468.5C 401.738,471.148 403.072,472.982 405.5,474C 425.5,474.333 445.5,474.667 465.5,475C 471.408,477.932 472.741,482.099 469.5,487.5C 339.833,487.667 210.166,487.5 80.5,487C 49.0854,480.919 29.2521,462.419 21,431.5C 19.6929,422.552 19.1929,413.552 19.5,404.5C 29.2477,382.781 45.9143,369.948 69.5,366C 201.5,365.333 333.5,365.333 465.5,366C 473.5,371.333 473.5,376.667 465.5,382C 333.5,382.333 201.5,382.667 69.5,383C 49.8792,387.287 37.3792,399.12 32,418.5C 28.8627,446.752 40.696,465.252 67.5,474C 170.5,474.667 273.5,474.667 376.5,474C 378.928,472.982 380.262,471.148 380.5,468.5 Z"/></g>
<g><path style="opacity:1" fill="#c0c2c2" d="M 446.5,398.5 C 422.833,398.5 399.167,398.5 375.5,398.5C 375.5,401.5 375.5,404.5 375.5,407.5C 375.828,418.679 375.495,429.679 374.5,440.5C 374.5,426.167 374.5,411.833 374.5,397.5C 398.672,397.169 422.672,397.502 446.5,398.5 Z"/></g>
<g><path style="opacity:1" fill="#dcdfdf" d="M 313.5,407.5 C 233.166,407.333 152.833,407.5 72.5,408C 57.1102,414.629 52.6102,425.796 59,441.5C 61.74,445.958 65.5733,449.125 70.5,451C 195.11,452.495 319.777,452.995 444.5,452.5C 444.5,451.5 444.5,450.5 444.5,449.5C 445.531,451.961 446.198,454.627 446.5,457.5C 433.365,459.16 420.031,460.16 406.5,460.5C 402.427,461.587 400.761,464.254 401.5,468.5C 394.5,468.5 387.5,468.5 380.5,468.5C 381.154,464.317 379.488,461.484 375.5,460C 273.5,459.667 171.5,459.333 69.5,459C 50.3358,451.508 43.1691,437.674 48,417.5C 52.7129,407.787 60.2129,401.287 70.5,398C 151.499,397.5 232.499,397.333 313.5,397.5C 313.5,400.833 313.5,404.167 313.5,407.5 Z"/></g>
<g><path style="opacity:1" fill="#9a690e" d="M 329.5,397.5 C 328.859,407.889 329.526,417.889 331.5,427.5C 330.791,428.404 329.791,428.737 328.5,428.5C 328.172,417.986 328.506,407.653 329.5,397.5 Z"/></g>
<g><path style="opacity:1" fill="#f7a917" d="M 329.5,397.5 C 332.167,397.5 334.833,397.5 337.5,397.5C 337.173,406.682 337.507,415.682 338.5,424.5C 336.351,425.736 334.018,426.736 331.5,427.5C 329.526,417.889 328.859,407.889 329.5,397.5 Z"/></g>
<g><path style="opacity:1" fill="#fbcb08" d="M 337.5,397.5 C 344.833,397.5 352.167,397.5 359.5,397.5C 360.141,407.889 359.474,417.889 357.5,427.5C 354.081,426.626 350.748,425.46 347.5,424C 344.445,423.366 341.445,423.532 338.5,424.5C 337.507,415.682 337.173,406.682 337.5,397.5 Z"/></g>
<g><path style="opacity:1" fill="#5a4a03" d="M 359.5,397.5 C 360.494,407.653 360.828,417.986 360.5,428.5C 359.209,428.737 358.209,428.404 357.5,427.5C 359.474,417.889 360.141,407.889 359.5,397.5 Z"/></g>
<g><path style="opacity:1" fill="#dee1e1" d="M 446.5,398.5 C 445.833,401.5 445.167,404.5 444.5,407.5C 421.5,407.5 398.5,407.5 375.5,407.5C 375.5,404.5 375.5,401.5 375.5,398.5C 399.167,398.5 422.833,398.5 446.5,398.5 Z"/></g>
<g><path style="opacity:1" fill="#f0f1f1" d="M 313.5,407.5 C 313.333,418.838 313.5,430.172 314,441.5C 316.435,446.224 320.269,447.724 325.5,446C 331.794,443.402 338.127,440.902 344.5,438.5C 351.78,441.895 359.28,444.562 367,446.5C 371.422,446.912 373.922,444.912 374.5,440.5C 375.495,429.679 375.828,418.679 375.5,407.5C 398.5,407.5 421.5,407.5 444.5,407.5C 441.884,421.489 441.884,435.489 444.5,449.5C 444.5,450.5 444.5,451.5 444.5,452.5C 319.777,452.995 195.11,452.495 70.5,451C 65.5733,449.125 61.74,445.958 59,441.5C 52.6102,425.796 57.1102,414.629 72.5,408C 152.833,407.5 233.166,407.333 313.5,407.5 Z"/></g>
<g><path style="opacity:1" fill="#d63623" d="M 19.5,404.5 C 19.1929,413.552 19.6929,422.552 21,431.5C 29.2521,462.419 49.0854,480.919 80.5,487C 210.166,487.5 339.833,487.667 469.5,487.5C 468.657,489.173 467.324,490.34 465.5,491C 332.833,491.667 200.167,491.667 67.5,491C 30.3422,481.218 12.8422,457.051 15,418.5C 15.8318,413.508 17.3318,408.841 19.5,404.5 Z"/></g>
<g><path style="opacity:1" fill="#3e3f3f" d="M 446.5,457.5 C 447.404,458.209 447.737,459.209 447.5,460.5C 433.833,460.5 420.167,460.5 406.5,460.5C 420.031,460.16 433.365,459.16 446.5,457.5 Z"/></g>
</svg>
